<svg width="72" height="51" viewBox="0 0 72 51" fill="none" xmlns="http://www.w3.org/2000/svg">
<path fill-rule="evenodd" clip-rule="evenodd" d="M16.2821 41.124C21.417 44.3843 28.1708 46.3636 35.5695 46.3636C42.9681 46.3636 49.7219 44.3843 54.8568 41.124C53.9104 38.6843 47.1114 37.0909 35.5695 37.0909C24.0276 37.0909 17.2286 38.6843 16.2821 41.124ZM11.6425 37.3799C15.2818 33.9337 23.8335 32.4545 35.5695 32.4545C47.3055 32.4545 55.8572 33.9337 59.4964 37.3799C62.7595 34.0085 64.6718 29.9143 64.6718 25.5C64.6718 13.9773 51.6422 4.63636 35.5695 4.63636C19.4967 4.63636 6.46718 13.9773 6.46718 25.5C6.46718 29.9143 8.37946 34.0085 11.6425 37.3799ZM35.5695 51C15.925 51 0 39.5833 0 25.5C0 11.4167 15.925 0 35.5695 0C55.214 0 71.1389 11.4167 71.1389 25.5C71.1389 39.5833 55.214 51 35.5695 51ZM22.6351 20.8636C22.6351 15.6611 27.7413 11.5909 35.5695 11.5909C43.376 11.5909 48.5038 16.0455 48.5038 21.3273C48.5038 28.93 42.7419 32.4545 35.5695 32.4545C28.329 32.4545 22.6351 28.8089 22.6351 20.8636ZM29.1023 20.8636C29.1023 26.1242 31.7481 27.8182 35.5695 27.8182C39.3777 27.8182 42.0366 26.1917 42.0366 21.3273C42.0366 18.4305 39.5004 16.2273 35.5695 16.2273C31.4749 16.2273 29.1023 18.1185 29.1023 20.8636Z" fill="#F7F7F7"/>
</svg>
