<svg width="31" height="31" viewBox="0 0 31 31" fill="none" xmlns="http://www.w3.org/2000/svg">
<path d="M11.9143 25.9937V22.1676C11.9143 21.1909 12.7118 20.3991 13.6957 20.3991H17.2921C17.7645 20.3991 18.2176 20.5855 18.5517 20.9171C18.8858 21.2488 19.0735 21.6986 19.0735 22.1676V25.9937C19.0705 26.3997 19.2309 26.7902 19.5191 27.0783C19.8072 27.3665 20.1994 27.5286 20.6084 27.5286H23.062C24.208 27.5315 25.308 27.0817 26.1193 26.2783C26.9307 25.4749 27.3867 24.3841 27.3867 23.2465V12.3466C27.3867 11.4276 26.9763 10.556 26.2663 9.96641L17.9195 3.34863C16.4676 2.18831 14.3872 2.22577 12.9786 3.43761L4.82231 9.96641C4.07871 10.5386 3.63427 11.4129 3.6123 12.3466V23.2353C3.6123 25.6064 5.54852 27.5286 7.93695 27.5286H10.3346C11.1841 27.5286 11.8745 26.8481 11.8807 26.0048L11.9143 25.9937Z" fill="#EFF2F4"/>
</svg>
