<svg width="31" height="31" viewBox="0 0 31 31" fill="none" xmlns="http://www.w3.org/2000/svg">
<path d="M11.7844 26.5025V22.6764C11.7844 21.6997 12.582 20.9079 13.5658 20.9079H17.1622C17.6347 20.9079 18.0878 21.0943 18.4218 21.4259C18.7559 21.7576 18.9436 22.2074 18.9436 22.6764V26.5025C18.9406 26.9085 19.101 27.299 19.3892 27.5871C19.6774 27.8753 20.0695 28.0374 20.4785 28.0374H22.9321C24.0781 28.0403 25.1781 27.5905 25.9894 26.7871C26.8008 25.9837 27.2568 24.8929 27.2568 23.7553V12.8554C27.2568 11.9364 26.8464 11.0648 26.1364 10.4752L17.7896 3.85742C16.3377 2.6971 14.2574 2.73456 12.8488 3.9464L4.69243 10.4752C3.94883 11.0474 3.50438 11.9216 3.48242 12.8554V23.7441C3.48242 26.1152 5.41863 28.0374 7.80707 28.0374H10.2047C11.0542 28.0374 11.7446 27.3569 11.7508 26.5136L11.7844 26.5025Z" fill="#EFF2F4"/>
</svg>
