<svg width="43" height="35" viewBox="0 0 43 35" fill="none" xmlns="http://www.w3.org/2000/svg">
<path fill-rule="evenodd" clip-rule="evenodd" d="M42.2589 17.4991C42.2589 14.5549 39.8704 12.2494 35.9201 12.2494H29.427C29.4459 12.2064 29.4655 12.1623 29.4858 12.1169C29.5443 11.986 29.7085 11.6275 29.8685 11.2782L29.8706 11.2736L29.8708 11.2732C30.013 10.9627 30.1516 10.6603 30.209 10.5326C30.6108 9.63949 30.9039 8.91993 31.1411 8.20732C31.4997 7.13025 31.6943 6.15989 31.6943 5.24974C31.6943 2.67386 29.7754 1.07396 26.9365 0.389334C25.6561 0.0805471 24.5416 -0.000158825 23.2425 2.3451e-07H22.2294L21.595 0.654267C20.8784 1.39335 19.4709 2.72536 17.8483 4.26104C14.8546 7.09411 11.1286 10.6203 9.65697 12.3955C9.27503 12.3016 8.87049 12.2511 8.45171 12.2511H4.22586C1.89198 12.2511 0 13.8181 0 15.751V31.5002C0 33.4331 1.89198 35 4.22586 35H8.45171C9.90369 35 11.1846 34.3935 11.9454 33.4698C12.5864 33.8131 13.3016 34.0997 14.079 34.3301C15.8588 34.8575 17.6239 35.0194 19.0894 34.9972L33.8072 34.9982C39.6286 34.9982 42.2589 27.8999 42.2589 17.4991ZM12.6778 15.7493C12.6778 15.329 12.7717 14.9568 12.9773 14.5593C13.3465 13.8454 16.6965 10.68 19.8717 7.67988L19.8718 7.67974L19.872 7.67957C21.5106 6.13127 23.1026 4.627 24.2144 3.52638C24.7456 3.55938 25.2463 3.627 25.755 3.74968C26.9658 4.04167 27.4683 4.46065 27.4683 5.24982C27.4683 5.80381 27.333 6.47881 27.0672 7.27728C26.8686 7.87395 26.6114 8.5053 26.249 9.31077C26.1976 9.4251 26.0693 9.70523 25.9328 10.0031L25.9328 10.0032C25.7665 10.3661 25.5882 10.7553 25.5222 10.903C25.2475 11.5183 25.0665 11.9713 24.9427 12.383C24.4163 14.133 24.9444 15.7493 27.4683 15.7493H35.9201C37.3806 15.7493 38.033 16.3791 38.033 17.4992C38.033 25.8826 35.952 31.4985 33.8071 31.4985H19.0166L18.9386 31.4996C18.0138 31.5133 16.7149 31.3941 15.5026 31.0349C13.6328 30.4809 12.6778 29.5775 12.6778 27.9987V15.7493ZM4.22583 31.5001V15.7509H8.45169V31.5001H4.22583Z" fill="white"/>
</svg>
