<svg width="31" height="39" viewBox="0 0 31 39" fill="none" xmlns="http://www.w3.org/2000/svg">
<path fill-rule="evenodd" clip-rule="evenodd" d="M21.38 0.526367H3.44444C1.54213 0.526367 0 2.0685 0 3.97081V34.9708C0 36.8731 1.54213 38.4153 3.44444 38.4153H27.5556C29.4579 38.4153 31 36.8731 31 34.9708V10.1463L21.38 0.526367ZM3.44432 3.97083H17.2223V10.8597C17.2223 12.762 18.7645 14.3041 20.6668 14.3041H27.5554V34.9708H3.44432V3.97083ZM20.6668 10.8597V4.68445L26.842 10.8597H20.6668ZM21.171 18.253L13.7777 25.6464L9.82878 21.6975L7.39319 24.1331L13.7777 30.5175L23.6066 20.6886L21.171 18.253Z" fill="white"/>
</svg>
