<svg width="52" height="50" viewBox="0 0 52 50" fill="none" xmlns="http://www.w3.org/2000/svg">
<path fill-rule="evenodd" clip-rule="evenodd" d="M43.4569 20.4458C43.4569 11.2243 37.7349 4.82392 30.3313 2.9025C30.0632 2.28612 29.6396 1.7131 29.0637 1.23228C27.096 -0.410759 24.0298 -0.410759 22.0621 1.23228C21.4875 1.71204 21.0645 2.28359 20.7963 2.89842C13.3831 4.81146 7.66885 11.1978 7.66885 20.4458C7.66885 26.4294 6.31143 29.7823 3.79855 32.2121C3.37839 32.6183 2.23996 33.549 1.46887 34.1794L1.46768 34.1804L1.46662 34.1812C1.10297 34.4785 0.821389 34.7088 0.736115 34.7851L0 35.4485V43.1955H15.5635C16.0898 45.6081 17.5628 47.2222 20.2267 48.6668C23.5037 50.444 27.6237 50.444 30.9007 48.6668C33.2516 47.3919 34.8279 45.4326 35.4675 43.1955H51.1258V35.4485L50.3896 34.7851C50.3122 34.7153 50.0417 34.4936 49.6879 34.2036L49.6866 34.2024L49.6864 34.2023C48.9177 33.5721 47.7572 32.6207 47.3307 32.2066C44.8161 29.7655 43.4569 26.4084 43.4569 20.4458ZM30.0031 43.1955H20.9079C21.269 43.7925 21.8846 44.2432 22.8899 44.7884C24.5316 45.6788 26.5957 45.6788 28.2375 44.7884C28.9977 44.3762 29.5917 43.8307 30.0031 43.1955ZM43.559 35.2751C44.0969 35.7973 45.2498 36.7518 46.0126 37.3754V38.6525H5.11197V37.3764C5.86881 36.7601 7.02518 35.8063 7.56214 35.2871C10.9767 31.9855 12.7808 27.5292 12.7808 20.4463C12.7808 11.8587 18.7441 6.84378 25.5623 6.84378C32.3613 6.84378 38.3437 11.8846 38.3437 20.4463C38.3437 27.5065 40.1485 31.9642 43.559 35.2751Z" fill="black"/>
</svg>
