<svg width="33" height="33" viewBox="0 0 33 33" fill="none" xmlns="http://www.w3.org/2000/svg">
<path fill-rule="evenodd" clip-rule="evenodd" d="M25.9501 29.3491L29.1418 26.1572L28.0177 22.0732L28.5074 20.9035L32.2032 18.818V14.3043L28.5179 12.2101L28.0364 11.0425L29.1746 6.95638L25.9806 3.76689L21.8965 4.89072L20.7295 4.40139L18.6439 0.705078H14.1303L12.0362 4.39055L10.8689 4.87198L6.78368 3.73231L3.59469 6.92145L4.71865 11.0065L4.22935 12.1735L0.533203 14.2592V18.7717L4.21518 20.8705L4.69712 22.0392L3.55908 26.1246L6.74929 29.3149L10.8341 28.1909L12.0013 28.6803L14.0869 32.3751H18.5993L20.6965 28.6928L21.8648 28.211L25.9501 29.3491ZM26.2327 18.8811L24.9777 21.8785L25.9211 25.306L25.1029 26.1243L21.6829 25.1715L18.6842 26.4083L16.9256 29.4959H15.7676L14.0236 26.4063L11.0295 25.1508L7.60042 26.0944L6.78356 25.2775L7.73629 21.8574L6.49967 18.8588L3.41211 17.0987V15.9405L6.50296 14.1964L7.75838 11.2021L6.81484 7.77281L7.62999 6.95761L11.05 7.91171L14.0497 6.67451L15.8056 3.58431H16.9624L18.7065 6.67529L21.7007 7.93077L25.1305 6.98701L25.9494 7.80476L24.9968 11.2243L26.2339 14.2238L29.3239 15.9798V17.1367L26.2327 18.8811ZM16.368 22.2992C13.1879 22.2992 10.6099 19.7211 10.6099 16.5408C10.6099 13.3605 13.1879 10.7823 16.368 10.7823C19.5482 10.7823 22.1262 13.3605 22.1262 16.5408C22.1262 19.7211 19.5482 22.2992 16.368 22.2992ZM19.2474 16.5408C19.2474 18.131 17.9584 19.42 16.3683 19.42C14.7783 19.42 13.4893 18.131 13.4893 16.5408C13.4893 14.9506 14.7783 13.6616 16.3683 13.6616C17.9584 13.6616 19.2474 14.9506 19.2474 16.5408Z" fill="white"/>
</svg>
