<svg width="49" height="42" viewBox="0 0 49 42" fill="none" xmlns="http://www.w3.org/2000/svg">
<path fill-rule="evenodd" clip-rule="evenodd" d="M41.238 16.875C41.238 9.26412 35.8083 3.98166 28.7829 2.39574C28.5285 1.88695 28.1265 1.41395 27.58 1.01706C25.7127 -0.339019 22.8031 -0.339019 20.9359 1.01706C20.3906 1.41304 19.9891 1.8848 19.7346 2.39227C12.6999 3.97114 7.27728 9.24212 7.27728 16.875C7.27728 21.8135 5.98917 24.5808 3.60458 26.5862C3.20593 26.9215 2.12592 27.6895 1.39423 28.2097L1.39249 28.211C1.04703 28.4566 0.779541 28.6468 0.698547 28.7099L0 29.2574V35.6514H14.7675C15.2669 37.6427 16.6648 38.975 19.1927 40.1674C22.3024 41.6342 26.212 41.6342 29.3217 40.1674C31.5527 39.1151 33.0486 37.4979 33.6554 35.6514H48.5153V29.2574L47.8168 28.7099C47.7432 28.6522 47.486 28.4688 47.1497 28.229L47.1496 28.229L47.1492 28.2287C46.4197 27.7085 45.3187 26.9234 44.914 26.5817C42.5278 24.567 41.238 21.7962 41.238 16.875ZM28.4701 35.6514H19.8389C20.1816 36.1442 20.7658 36.5163 21.7199 36.9663C23.2778 37.7012 25.2366 37.7012 26.7945 36.9663C27.516 36.626 28.0797 36.1757 28.4701 35.6514ZM41.3372 29.1139C41.8477 29.5449 42.9417 30.3327 43.6655 30.8473V31.9014H4.85328V30.8482C5.57148 30.3395 6.6688 29.5523 7.17834 29.1238C10.4185 26.3989 12.1306 22.7209 12.1306 16.875C12.1306 9.78728 17.7893 5.64819 24.2594 5.64819C30.7112 5.64819 36.3882 9.80865 36.3882 16.875C36.3882 22.7021 38.1008 26.3812 41.3372 29.1139Z" fill="black"/>
</svg>
