<svg width="52" height="50" viewBox="0 0 52 50" fill="none" xmlns="http://www.w3.org/2000/svg">
<path fill-rule="evenodd" clip-rule="evenodd" d="M43.4569 20.4459C43.4569 11.2244 37.735 4.82411 30.3314 2.90266C30.0633 2.28622 29.6396 1.71314 29.0638 1.23228C27.096 -0.410759 24.0299 -0.410759 22.0621 1.23228C21.4875 1.71208 21.0644 2.28368 20.7963 2.89857C13.3831 4.81161 7.66885 11.198 7.66885 20.4459C7.66885 26.4295 6.31143 29.7824 3.79855 32.2122C3.37839 32.6185 2.23996 33.5492 1.46887 34.1795L1.46768 34.1805L1.46662 34.1814C1.10297 34.4787 0.821389 34.7089 0.736115 34.7852L0 35.4486V43.1957H15.5634C16.0897 45.6083 17.5627 47.2225 20.2267 48.6672C23.5037 50.4444 27.6237 50.4444 30.9007 48.6672C33.2517 47.3922 34.828 45.4328 35.4676 43.1957H51.1258V35.4486L50.3896 34.7852C50.3122 34.7155 50.0417 34.4937 49.6879 34.2037L49.6866 34.2025L49.6864 34.2024C48.9177 33.5722 47.7572 32.6208 47.3307 32.2068C44.8161 29.7656 43.4569 26.4085 43.4569 20.4459ZM30.0032 43.1957H20.9077C21.2689 43.7927 21.8845 44.2435 22.8899 44.7888C24.5316 45.6791 26.5957 45.6791 28.2375 44.7888C28.9978 44.3765 29.5918 43.8309 30.0032 43.1957ZM43.559 36.275C44.0969 36.7972 45.2498 37.7517 46.0126 38.3753V39.6524H5.11198V38.3763C5.86882 37.76 7.02519 36.8062 7.56215 36.287C10.9767 32.9854 12.7808 28.5291 12.7808 21.4462C12.7808 12.8586 18.7441 7.84368 25.5623 7.84368C32.3613 7.84368 38.3437 12.8845 38.3437 21.4462C38.3437 28.5064 40.1485 32.9641 43.559 36.275Z" fill="black"/>
</svg>
