<svg width="43" height="45" viewBox="0 0 43 45" fill="none" xmlns="http://www.w3.org/2000/svg">
<path fill-rule="evenodd" clip-rule="evenodd" d="M23.3146 12.8077V4.93998C32.0574 5.93204 38.8576 13.5405 38.8576 22.7793C38.8576 32.6922 31.0289 40.7282 21.3717 40.7282C11.7145 40.7282 3.88576 32.6922 3.88576 22.7793C3.88576 17.9406 5.75707 13.4113 9.0305 10.0637L6.28798 7.23809C2.28996 11.3267 0 16.8693 0 22.7793C0 34.895 9.56843 44.7168 21.3717 44.7168C33.1749 44.7168 42.7434 34.895 42.7434 22.7793C42.7434 10.6635 33.1749 0.841797 21.3717 0.841797H19.4288V12.8077H23.3146ZM21.3715 18.7909C21.0234 18.7909 20.686 18.8379 20.365 18.926L13.0309 11.3977L10.2833 14.2181L17.6174 21.7464C17.5315 22.0759 17.4857 22.4222 17.4857 22.7795C17.4857 24.9824 19.2254 26.7681 21.3715 26.7681C23.5175 26.7681 25.2573 24.9824 25.2573 22.7795C25.2573 20.5766 23.5175 18.7909 21.3715 18.7909Z" fill="white"/>
</svg>
