<svg width="50" height="36" viewBox="0 0 50 36" fill="none" xmlns="http://www.w3.org/2000/svg">
<path fill-rule="evenodd" clip-rule="evenodd" d="M42.5 14.6667C42.5 8.05176 36.9041 3.46054 29.6635 2.08221C29.4013 1.64001 28.9869 1.22891 28.4237 0.883965C26.4993 -0.294655 23.5007 -0.294655 21.5763 0.883965C21.0143 1.22815 20.6006 1.6382 20.3383 2.07929C13.0884 3.45161 7.5 8.0328 7.5 14.6667C7.5 18.959 6.17245 21.3642 3.7149 23.1072C3.30401 23.3986 2.19071 24.0662 1.43659 24.5184L1.43646 24.5185C1.07977 24.7324 0.803467 24.8981 0.71991 24.9529L0 25.4288V30.9861H15.2199C15.7346 32.7168 17.1752 33.8748 19.7805 34.9111C22.9854 36.186 27.0146 36.186 30.2195 34.9111C32.5187 33.9965 34.0604 32.5909 34.6858 30.9861H50V25.4288L49.2801 24.9529C49.2043 24.9028 48.9392 24.7434 48.5927 24.535C47.8408 24.083 46.7057 23.4004 46.2885 23.1033C43.8292 21.3522 42.5 18.944 42.5 14.6667ZM29.3418 30.9861H20.4465C20.7997 31.4144 21.4018 31.7378 22.385 32.1289C23.9907 32.7676 26.0093 32.7676 27.615 32.1289C28.3585 31.8332 28.9395 31.4418 29.3418 30.9861ZM42.6004 25.3041C43.1265 25.6787 44.254 26.3634 45 26.8107V27.7268H5.00001V26.8114C5.74019 26.3693 6.8711 25.6852 7.39623 25.3127C10.7356 22.9443 12.5 19.7476 12.5 14.6667C12.5 8.50654 18.3319 4.90909 25 4.90909C31.6493 4.90909 37.5 8.52511 37.5 14.6667C37.5 19.7313 39.265 22.929 42.6004 25.3041Z" fill="black"/>
</svg>
