<svg width="55" height="45" viewBox="0 0 55 45" fill="none" xmlns="http://www.w3.org/2000/svg">
<path fill-rule="evenodd" clip-rule="evenodd" d="M27.1293 45C12.1462 45 0 34.9264 0 22.5C0 10.0736 12.1462 0 27.1293 0C42.1123 0 54.2585 10.0736 54.2585 22.5C54.2585 34.9264 42.1123 45 27.1293 45ZM27.1292 40.909C39.388 40.909 49.3258 32.667 49.3258 22.5C49.3258 12.3329 39.388 4.09086 27.1292 4.09086C14.8703 4.09086 4.9325 12.3329 4.9325 22.5C4.9325 32.667 14.8703 40.909 27.1292 40.909ZM35.2503 14.9175L22.1964 25.7439L16.5415 21.0539L13.0536 23.9466L22.1964 31.5293L38.7382 17.8103L35.2503 14.9175Z" fill="white"/>
</svg>
