<svg width="31" height="31" viewBox="0 0 31 31" fill="none" xmlns="http://www.w3.org/2000/svg">
<path fill-rule="evenodd" clip-rule="evenodd" d="M9.36925 6.03467H6.36925V4.53465H3.36903V9.03467H27.369V4.53465H24.369V6.03467H21.369V4.53465H9.36925V6.03467ZM27.369 12.0347H3.36903V27.0347H27.369V12.0347ZM21.369 1.53465H9.36925V0.034668H6.36925V1.53465H3.36914C1.71229 1.53465 0.369141 2.8778 0.369141 4.53465V27.0347C0.369141 28.6915 1.71229 30.0347 3.36914 30.0347H27.3691C29.026 30.0347 30.3691 28.6915 30.3691 27.0347V4.53465C30.3691 2.8778 29.026 1.53465 27.3691 1.53465H24.369V0.034668H21.369V1.53465ZM10.869 18.0347H7.86903V15.0347H10.869V18.0347ZM13.8691 18.0347H16.8691V15.0347H13.8691V18.0347ZM22.8693 18.0347H19.8693V15.0347H22.8693V18.0347ZM7.86903 24.0347H10.869V21.0347H7.86903V24.0347ZM16.8691 24.0347H13.8691V21.0347H16.8691V24.0347Z" fill="white"/>
</svg>
