<svg width="52" height="48" viewBox="0 0 52 48" fill="none" xmlns="http://www.w3.org/2000/svg">
<path fill-rule="evenodd" clip-rule="evenodd" d="M43.5272 19.5163C43.5272 10.8646 37.8053 4.85969 30.4018 3.05694C30.1337 2.47854 29.71 1.94082 29.1341 1.48964C27.1663 -0.0518843 24.1002 -0.0518843 22.1324 1.48964C21.5578 1.93982 21.1347 2.47616 20.8665 3.0531C13.4534 4.84796 7.73917 10.8397 7.73917 19.5163C7.73917 25.1302 6.38174 28.2759 3.86887 30.5556C3.44871 30.9367 2.31036 31.8098 1.53928 32.4013L1.53922 32.4013C1.17444 32.6811 0.891876 32.8978 0.806427 32.9696L0.0703125 33.592V40.8604H15.6338C16.1601 43.1239 17.6331 44.6383 20.297 45.9937C23.574 47.6611 27.694 47.6611 30.971 45.9937C33.3219 44.7975 34.8982 42.9593 35.5378 40.8604H51.1961V33.592L50.46 32.9696C50.383 32.9046 50.1153 32.6986 49.7647 32.429L49.7582 32.424L49.7569 32.4229L49.7567 32.4228L49.7565 32.4227C48.9878 31.8314 47.8275 30.9389 47.401 30.5505C44.8864 28.2602 43.5272 25.1105 43.5272 19.5163ZM30.0734 40.8604H20.9782C21.3394 41.4205 21.9549 41.8434 22.9602 42.3549C24.602 43.1903 26.666 43.1903 28.3078 42.3549C29.068 41.9681 29.662 41.4563 30.0734 40.8604ZM43.6293 33.4289C44.1672 33.9188 45.3202 34.8144 46.0829 35.3994V36.5976H5.18229V35.4003C5.93914 34.8222 7.09551 33.9273 7.63246 33.4402C11.047 30.3426 12.8512 26.1616 12.8512 19.5163C12.8512 11.4593 18.8144 6.75421 25.6326 6.75421C32.4316 6.75421 38.414 11.4836 38.414 19.5163C38.414 26.1403 40.2188 30.3225 43.6293 33.4289Z" fill="black"/>
</svg>
