<svg width="52" height="47" viewBox="0 0 52 47" fill="none" xmlns="http://www.w3.org/2000/svg">
<path fill-rule="evenodd" clip-rule="evenodd" d="M43.4569 19.1828C43.4569 10.5311 37.735 4.52619 30.3315 2.72344C30.0634 2.14504 29.6397 1.60733 29.0638 1.15614C27.096 -0.38538 24.0299 -0.38538 22.0621 1.15614C21.4875 1.60633 21.0644 2.14266 20.7962 2.7196C13.3831 4.51447 7.66885 10.5062 7.66885 19.1828C7.66885 24.7967 6.31143 27.9424 3.79855 30.2221C3.3784 30.6032 2.24005 31.4763 1.46896 32.0678L1.4689 32.0678C1.10413 32.3476 0.821564 32.5643 0.736115 32.6361L0 33.2585V40.5269H15.5635C16.0898 42.7904 17.5628 44.3048 20.2267 45.6602C23.5037 47.3276 27.6237 47.3276 30.9007 45.6602C33.2516 44.464 34.8279 42.6258 35.4675 40.5269H51.1258V33.2585L50.3896 32.6361C50.3127 32.5711 50.045 32.3651 49.6944 32.0955L49.6879 32.0905L49.6866 32.0894L49.6864 32.0893L49.6862 32.0892C48.9175 31.4979 47.7572 30.6054 47.3307 30.217C44.8161 27.9267 43.4569 24.777 43.4569 19.1828ZM30.0031 40.5269H20.9079C21.269 41.087 21.8846 41.5099 22.8899 42.0214C24.5316 42.8568 26.5957 42.8568 28.2375 42.0214C28.9977 41.6346 29.5917 41.1228 30.0031 40.5269ZM43.559 33.0954C44.0969 33.5853 45.2498 34.4809 46.0126 35.0659V36.2641H5.11198V35.0668C5.86882 34.4887 7.02519 33.5938 7.56215 33.1067C10.9767 30.0091 12.7808 25.8281 12.7808 19.1828C12.7808 11.1258 18.7441 6.42071 25.5623 6.42071C32.3613 6.42071 38.3437 11.1501 38.3437 19.1828C38.3437 25.8068 40.1485 29.989 43.559 33.0954Z" fill="black"/>
</svg>
