<svg width="45" height="45" viewBox="0 0 45 45" fill="none" xmlns="http://www.w3.org/2000/svg">
<path fill-rule="evenodd" clip-rule="evenodd" d="M22.5 45C10.0736 45 0 34.9264 0 22.5C0 10.0736 10.0736 0 22.5 0C34.9264 0 45 10.0736 45 22.5C45 34.9264 34.9264 45 22.5 45ZM22.4999 40.9092C32.667 40.9092 40.909 32.6671 40.909 22.5001C40.909 12.333 32.667 4.09097 22.4999 4.09097C12.3329 4.09097 4.09082 12.333 4.09082 22.5001C4.09082 32.6671 12.3329 40.9092 22.4999 40.9092ZM15.7648 32.1283L22.5002 25.3928L29.2357 32.1283L32.1284 29.2356L25.393 22.5001L32.1284 15.7646L29.2357 12.8719L22.5002 19.6074L15.7648 12.8719L12.8721 15.7646L19.6075 22.5001L12.8721 29.2356L15.7648 32.1283Z" fill="white"/>
</svg>
