<svg width="60" height="60" viewBox="0 0 60 60" fill="none" xmlns="http://www.w3.org/2000/svg">
<path fill-rule="evenodd" clip-rule="evenodd" d="M30 60C13.4315 60 0 46.5685 0 30C0 13.4315 13.4315 0 30 0C46.5685 0 60 13.4315 60 30C60 46.5685 46.5685 60 30 60ZM30 54.5455C43.5561 54.5455 54.5455 43.5561 54.5455 30C54.5455 16.444 43.5561 5.45459 30 5.45459C16.444 5.45459 5.45459 16.444 5.45459 30C5.45459 43.5561 16.444 54.5455 30 54.5455ZM38.9805 19.8898L24.5453 34.3249L18.292 28.0716L14.4351 31.9285L24.5453 42.0388L42.8375 23.7467L38.9805 19.8898Z" fill="white"/>
</svg>
