<svg width="33" height="33" viewBox="0 0 33 33" fill="none" xmlns="http://www.w3.org/2000/svg">
<path fill-rule="evenodd" clip-rule="evenodd" d="M26.0809 29.2592L29.2726 26.0673L28.1485 21.9834L28.6383 20.8137L32.3341 18.7282V14.2145L28.6488 12.1202L28.1672 10.9526L29.3055 6.86654L26.1115 3.67705L22.0273 4.80087L20.8603 4.31155L18.7747 0.615234H14.2612L12.1671 4.3007L10.9998 4.78214L6.91454 3.64246L3.72555 6.8316L4.84951 10.9166L4.3602 12.0837L0.664062 14.1694V18.6818L4.34604 20.7807L4.82798 21.9493L3.68994 26.0347L6.88015 29.2251L10.965 28.101L12.1321 28.5904L14.2178 32.2852H18.7301L20.8274 28.603L21.9957 28.1211L26.0809 29.2592ZM26.3636 18.7912L25.1086 21.7887L26.052 25.2161L25.2337 26.0344L21.8137 25.0816L18.815 26.3184L17.0565 29.406H15.8985L14.1544 26.3164L11.1604 25.061L7.73128 26.0046L6.91442 25.1877L7.86715 21.7675L6.63053 18.7689L3.54297 17.0089V15.8507L6.63382 14.1066L7.88924 11.1122L6.9457 7.68296L7.76085 6.86777L11.1809 7.82186L14.1806 6.58466L15.9365 3.49446H17.0933L18.8374 6.58545L21.8315 7.84093L25.2613 6.89716L26.0802 7.71491L25.1277 11.1344L26.3647 14.134L29.4548 15.89V17.0469L26.3636 18.7912ZM16.4989 22.2094C13.3187 22.2094 10.7407 19.6313 10.7407 16.451C10.7407 13.2706 13.3187 10.6925 16.4989 10.6925C19.6791 10.6925 22.2571 13.2706 22.2571 16.451C22.2571 19.6313 19.6791 22.2094 16.4989 22.2094ZM19.3783 16.451C19.3783 18.0411 18.0893 19.3302 16.4992 19.3302C14.9091 19.3302 13.6201 18.0411 13.6201 16.451C13.6201 14.8608 14.9091 13.5717 16.4992 13.5717C18.0893 13.5717 19.3783 14.8608 19.3783 16.451Z" fill="white"/>
</svg>
