<svg width="31" height="31" viewBox="0 0 31 31" fill="none" xmlns="http://www.w3.org/2000/svg">
<path fill-rule="evenodd" clip-rule="evenodd" d="M9.50011 6.94483H6.50011V5.44481H3.49989V9.94483H27.4999V5.44481H24.4999V6.94483H21.4999V5.44481H9.50011V6.94483ZM27.4999 12.9448H3.49989V27.9448H27.4999V12.9448ZM21.4999 2.44481H9.50011V0.944824H6.50011V2.44481H3.5C1.84315 2.44481 0.5 3.78796 0.5 5.44481V27.9448C0.5 29.6017 1.84315 30.9448 3.5 30.9448H27.5C29.1569 30.9448 30.5 29.6017 30.5 27.9448V5.44481C30.5 3.78796 29.1569 2.44481 27.5 2.44481H24.4999V0.944824H21.4999V2.44481ZM10.9999 18.9448H7.99989V15.9448H10.9999V18.9448ZM14 18.9448H17V15.9448H14V18.9448ZM23.0001 18.9448H20.0001V15.9448H23.0001V18.9448ZM7.99989 24.9448H10.9999V21.9448H7.99989V24.9448ZM17 24.9448H14V21.9448H17V24.9448Z" fill="white"/>
</svg>
