<svg width="1152" height="372" viewBox="0 0 1152 372" fill="none" xmlns="http://www.w3.org/2000/svg">
<g filter="url(#filter0_d_710_2819)">
<path d="M4 39C4 17.4609 21.4609 0 43 0H1109C1130.54 0 1148 17.4609 1148 39V325C1148 346.539 1130.54 364 1109 364H43C21.4609 364 4 346.539 4 325V39Z" fill="#F3FFF4"/>
<path d="M4.5 39C4.5 17.737 21.737 0.5 43 0.5H1109C1130.26 0.5 1147.5 17.737 1147.5 39V325C1147.5 346.263 1130.26 363.5 1109 363.5H43C21.7371 363.5 4.5 346.263 4.5 325V39Z" stroke="black"/>
</g>
<defs>
<filter id="filter0_d_710_2819" x="0" y="0" width="1152" height="372" filterUnits="userSpaceOnUse" color-interpolation-filters="sRGB">
<feFlood flood-opacity="0" result="BackgroundImageFix"/>
<feColorMatrix in="SourceAlpha" type="matrix" values="0 0 0 0 0 0 0 0 0 0 0 0 0 0 0 0 0 0 127 0" result="hardAlpha"/>
<feOffset dy="4"/>
<feGaussianBlur stdDeviation="2"/>
<feComposite in2="hardAlpha" operator="out"/>
<feColorMatrix type="matrix" values="0 0 0 0 0 0 0 0 0 0 0 0 0 0 0 0 0 0 0.25 0"/>
<feBlend mode="normal" in2="BackgroundImageFix" result="effect1_dropShadow_710_2819"/>
<feBlend mode="normal" in="SourceGraphic" in2="effect1_dropShadow_710_2819" result="shape"/>
</filter>
</defs>
</svg>
