<svg width="1138" height="372" viewBox="0 0 1138 372" fill="none" xmlns="http://www.w3.org/2000/svg">
<g filter="url(#filter0_d_1326_8606)">
<path d="M4 39C4 17.4609 21.4609 0 43 0H1095C1116.54 0 1134 17.4609 1134 39V325C1134 346.539 1116.54 364 1095 364H43C21.4609 364 4 346.539 4 325V39Z" fill="#F3FFF4"/>
<path d="M4.5 39C4.5 17.737 21.737 0.5 43 0.5H1095C1116.26 0.5 1133.5 17.737 1133.5 39V325C1133.5 346.263 1116.26 363.5 1095 363.5H43C21.7371 363.5 4.5 346.263 4.5 325V39Z" stroke="black"/>
</g>
<defs>
<filter id="filter0_d_1326_8606" x="0" y="0" width="1138" height="372" filterUnits="userSpaceOnUse" color-interpolation-filters="sRGB">
<feFlood flood-opacity="0" result="BackgroundImageFix"/>
<feColorMatrix in="SourceAlpha" type="matrix" values="0 0 0 0 0 0 0 0 0 0 0 0 0 0 0 0 0 0 127 0" result="hardAlpha"/>
<feOffset dy="4"/>
<feGaussianBlur stdDeviation="2"/>
<feComposite in2="hardAlpha" operator="out"/>
<feColorMatrix type="matrix" values="0 0 0 0 0 0 0 0 0 0 0 0 0 0 0 0 0 0 0.25 0"/>
<feBlend mode="normal" in2="BackgroundImageFix" result="effect1_dropShadow_1326_8606"/>
<feBlend mode="normal" in="SourceGraphic" in2="effect1_dropShadow_1326_8606" result="shape"/>
</filter>
</defs>
</svg>
