<svg width="1702" height="130" viewBox="0 0 1702 130" fill="none" xmlns="http://www.w3.org/2000/svg">
<rect x="0.519531" y="0.573242" width="1700.98" height="42.3768" fill="white"/>
<rect x="0.519531" y="0.573242" width="1700.98" height="42.3768" stroke="black"/>
<rect x="0.519531" y="0.573242" width="1700.98" height="42.3768" stroke="black"/>
<rect x="0.519531" y="81.6191" width="1700.98" height="44.6598" fill="white" stroke="black"/>
<rect x="0.0195312" y="43.4502" width="1701.98" height="37.6693" fill="#DADADA" fill-opacity="0.46"/>
<rect x="0.519531" y="43.9502" width="1700.98" height="36.6693" stroke="black" stroke-opacity="0.19"/>
<line y1="-0.5" x2="126.713" y2="-0.5" transform="matrix(0.011589 0.999933 -0.999976 0.00700275 70.5059 0.0732422)" stroke="black" stroke-opacity="0.5"/>
<line y1="-0.5" x2="126.713" y2="-0.5" transform="matrix(0.011589 0.999933 -0.999976 0.00700275 377.42 0.0732422)" stroke="black" stroke-opacity="0.5"/>
<line y1="-0.5" x2="126.713" y2="-0.5" transform="matrix(0.011589 0.999933 -0.999976 0.00700275 704.895 0.0732422)" stroke="black" stroke-opacity="0.5"/>
<line y1="-0.5" x2="126.713" y2="-0.5" transform="matrix(0.011589 0.999933 -0.999976 0.00700275 1085.24 2.35645)" stroke="black" stroke-opacity="0.5"/>
<line y1="-0.5" x2="126.713" y2="-0.5" transform="matrix(0.011589 0.999933 -0.999976 0.00700275 1450.89 0.0732422)" stroke="black" stroke-opacity="0.5"/>
</svg>
