<svg width="54" height="40" viewBox="0 0 54 40" fill="none" xmlns="http://www.w3.org/2000/svg">
<path d="M31.6635 4.08221L30.3732 4.84718L30.7183 5.42921L31.383 5.55575L31.6635 4.08221ZM48.2885 25.1033L49.1585 23.8814L49.1585 23.8814L48.2885 25.1033ZM50.5926 26.535L49.8196 27.8205L49.8196 27.8205L50.5926 26.535ZM51.2801 26.9529L52.1073 25.7016L52.1073 25.7016L51.2801 26.9529ZM52 27.4288H53.5V26.6223L52.8272 26.1775L52 27.4288ZM52 32.9861V34.4861H53.5V32.9861H52ZM36.6858 32.9861V31.4861H35.6605L35.2882 32.4414L36.6858 32.9861ZM32.2195 36.9111L31.6651 35.5173L32.2195 36.9111ZM21.7805 36.9111L22.3349 35.5173H22.3349L21.7805 36.9111ZM17.2199 32.9861L18.6577 32.5586L18.3388 31.4861H17.2199V32.9861ZM2 32.9861H0.5V34.4861H2V32.9861ZM2 27.4288L1.17283 26.1775L0.5 26.6223V27.4288H2ZM2.71991 26.9529L1.89653 25.6991L1.89274 25.7016L2.71991 26.9529ZM3.43661 26.5184L4.20803 27.8048L4.21442 27.801L4.22077 27.7971L3.43661 26.5184ZM3.43672 26.5183L2.6653 25.2319L2.65891 25.2357L2.65256 25.2396L3.43672 26.5183ZM5.7149 25.1072L6.58266 26.3307H6.58266L5.7149 25.1072ZM22.3383 4.07929L22.6173 5.55312L23.2819 5.42731L23.6276 4.84588L22.3383 4.07929ZM23.5763 2.88397L22.7929 1.60481L22.7929 1.60481L23.5763 2.88397ZM30.4237 2.88397L29.6403 4.16312V4.16312L30.4237 2.88397ZM31.3418 32.9861L32.4663 33.9788L34.667 31.4861H31.3418V32.9861ZM22.4465 32.9861V31.4861H19.2653L21.2893 33.9404L22.4465 32.9861ZM29.615 34.1289L30.1694 35.5227H30.1694L29.615 34.1289ZM24.385 34.1289L23.8306 35.5227H23.8306L24.385 34.1289ZM46 16.6667C46 9.02288 39.5374 4.05418 31.944 2.60867L31.383 5.55575C38.2706 6.8669 43 11.0807 43 16.6667H46ZM49.1585 23.8814C48.101 23.1284 47.3406 22.2773 46.8286 21.1921C46.3093 20.0917 46 18.6541 46 16.6667H43C43 18.9566 43.3554 20.8617 44.1155 22.4725C44.8828 24.0985 46.0167 25.3271 47.4184 26.3252L49.1585 23.8814ZM51.3656 25.2495C50.5789 24.7765 49.5146 24.135 49.1585 23.8814L47.4184 26.3252C47.8966 26.6657 49.1026 27.3894 49.8196 27.8205L51.3656 25.2495ZM52.1073 25.7016C51.9963 25.6283 51.687 25.4428 51.3656 25.2495L49.8196 27.8205C49.9937 27.9252 50.1441 28.0156 50.2604 28.0861C50.3186 28.1214 50.3658 28.1502 50.4019 28.1724C50.4424 28.1975 50.4555 28.2059 50.4529 28.2043L52.1073 25.7016ZM52.8272 26.1775L52.1073 25.7016L50.4529 28.2043L51.1728 28.6801L52.8272 26.1775ZM53.5 32.9861V27.4288H50.5V32.9861H53.5ZM36.6858 34.4861H52V31.4861H36.6858V34.4861ZM32.7739 38.3049C35.3226 37.291 37.2605 35.6423 38.0834 33.5308L35.2882 32.4414C34.8602 33.5395 33.7148 34.702 31.6651 35.5173L32.7739 38.3049ZM21.2261 38.3049C24.787 39.7214 29.213 39.7214 32.7739 38.3049L31.6651 35.5173C28.8163 36.6506 25.1837 36.6506 22.3349 35.5173L21.2261 38.3049ZM15.7822 33.4136C16.4977 35.8199 18.491 37.2169 21.2261 38.3049L22.3349 35.5173C19.8595 34.5326 18.9715 33.6138 18.6577 32.5586L15.7822 33.4136ZM2 34.4861H17.2199V31.4861H2V34.4861ZM0.5 27.4288V32.9861H3.5V27.4288H0.5ZM1.89274 25.7016L1.17283 26.1775L2.82717 28.6801L3.54708 28.2043L1.89274 25.7016ZM2.6652 25.232C2.33195 25.4318 2.01379 25.6221 1.89654 25.6991L3.54329 28.2068C3.54161 28.2078 3.54544 28.2053 3.55756 28.1977C3.56879 28.1907 3.58376 28.1814 3.60292 28.1696C3.64135 28.1459 3.6911 28.1157 3.75176 28.079C3.87312 28.0057 4.02881 27.9123 4.20803 27.8048L2.6652 25.232ZM2.65256 25.2396L2.65246 25.2397L4.22077 27.7971L4.22087 27.797L2.65256 25.2396ZM4.84713 23.8837C4.49687 24.1321 3.45404 24.7589 2.6653 25.2319L4.20813 27.8048C4.92759 27.3733 6.11116 26.6651 6.58266 26.3307L4.84713 23.8837ZM8 16.6667C8 18.6628 7.69081 20.1033 7.17223 21.2034C6.66115 22.2875 5.90259 23.1351 4.84713 23.8837L6.58266 26.3307C7.98477 25.3363 9.11876 24.1098 9.88584 22.4826C10.6454 20.8712 11 18.963 11 16.6667H8ZM22.0593 2.60546C14.4546 4.04494 8 9.00418 8 16.6667H11C11 11.0614 15.7222 6.85828 22.6173 5.55312L22.0593 2.60546ZM23.6276 4.84588C23.7444 4.64949 23.9674 4.4034 24.3597 4.16312L22.7929 1.60481C22.0613 2.0529 21.4567 2.62691 21.049 3.3127L23.6276 4.84588ZM24.3597 4.16312C25.041 3.74588 25.9875 3.5 27 3.5C28.0125 3.5 28.9591 3.74588 29.6403 4.16312L31.2072 1.60481C29.964 0.843428 28.4491 0.5 27 0.5C25.551 0.5 24.036 0.843428 22.7929 1.60481L24.3597 4.16312ZM29.6403 4.16312C30.0335 4.40394 30.2566 4.65057 30.3732 4.84718L32.9538 3.31724C32.546 2.62944 31.9404 2.05388 31.2072 1.60481L29.6403 4.16312ZM31.3418 31.4861H22.4465V34.4861H31.3418V31.4861ZM30.1694 35.5227C31.0786 35.161 31.8741 34.6496 32.4663 33.9788L30.2173 31.9933C30.0048 32.2341 29.6383 32.5053 29.0605 32.7352L30.1694 35.5227ZM23.8306 35.5227C25.7923 36.303 28.2077 36.303 30.1694 35.5227L29.0605 32.7352C27.811 33.2322 26.189 33.2322 24.9395 32.7352L23.8306 35.5227ZM21.2893 33.9404C21.9138 34.6978 22.8588 35.1361 23.8306 35.5227L24.9395 32.7352C23.9448 32.3395 23.6857 32.131 23.6038 32.0317L21.2893 33.9404Z" fill="black"/>
</svg>
