<svg width="33" height="33" viewBox="0 0 33 33" fill="none" xmlns="http://www.w3.org/2000/svg">
<path fill-rule="evenodd" clip-rule="evenodd" d="M7.55298 26.2339C9.93495 28.3113 13.0679 29.5724 16.5 29.5724C19.9321 29.5724 23.0651 28.3113 25.447 26.2339C25.008 24.6794 21.8541 23.6642 16.5 23.6642C11.1459 23.6642 7.992 24.6794 7.55298 26.2339ZM5.40076 23.8483C7.08893 21.6525 11.0559 20.7101 16.5 20.7101C21.9441 20.7101 25.9111 21.6525 27.5992 23.8483C29.1129 21.7002 30 19.0915 30 16.2789C30 8.93708 23.9558 2.98537 16.5 2.98537C9.04416 2.98537 3 8.93708 3 16.2789C3 19.0915 3.88707 21.7002 5.40076 23.8483ZM16.5 32.5265C7.3873 32.5265 0 25.2522 0 16.2789C0 7.30556 7.3873 0.03125 16.5 0.03125C25.6127 0.03125 33 7.30556 33 16.2789C33 25.2522 25.6127 32.5265 16.5 32.5265ZM10.5 13.3248C10.5 10.0099 12.8686 7.41654 16.5 7.41654C20.1213 7.41654 22.5 10.2548 22.5 13.6202C22.5 18.4644 19.8271 20.7101 16.5 20.7101C13.1413 20.7101 10.5 18.3872 10.5 13.3248ZM13.5 13.3248C13.5 16.6766 14.7273 17.7559 16.5 17.7559C18.2666 17.7559 19.5 16.7196 19.5 13.6202C19.5 11.7745 18.3235 10.3707 16.5 10.3707C14.6006 10.3707 13.5 11.5757 13.5 13.3248Z" fill="white"/>
</svg>
