<svg width="34" height="34" viewBox="0 0 34 34" fill="none" xmlns="http://www.w3.org/2000/svg">
<path fill-rule="evenodd" clip-rule="evenodd" d="M8.42212 26.7427C10.8041 28.82 13.937 30.0812 17.3691 30.0812C20.8012 30.0812 23.9342 28.82 26.3162 26.7427C25.8771 25.1882 22.7232 24.173 17.3691 24.173C12.0151 24.173 8.86114 25.1882 8.42212 26.7427ZM6.2699 24.3571C7.95807 22.1613 11.925 21.2188 17.3691 21.2188C22.8132 21.2188 26.7802 22.1613 28.4684 24.3571C29.9821 22.2089 30.8691 19.6003 30.8691 16.7877C30.8691 9.44587 24.825 3.49415 17.3691 3.49415C9.9133 3.49415 3.86914 9.44587 3.86914 16.7877C3.86914 19.6003 4.75621 22.2089 6.2699 24.3571ZM17.3691 33.0353C8.25644 33.0353 0.869141 25.761 0.869141 16.7877C0.869141 7.81435 8.25644 0.540039 17.3691 0.540039C26.4818 0.540039 33.8691 7.81435 33.8691 16.7877C33.8691 25.761 26.4818 33.0353 17.3691 33.0353ZM11.3691 13.8336C11.3691 10.5187 13.7378 7.92533 17.3691 7.92533C20.9904 7.92533 23.3691 10.7636 23.3691 14.129C23.3691 18.9732 20.6963 21.2188 17.3691 21.2188C14.0104 21.2188 11.3691 18.896 11.3691 13.8336ZM14.3691 13.8336C14.3691 17.1854 15.5965 18.2647 17.3691 18.2647C19.1357 18.2647 20.3691 17.2284 20.3691 14.129C20.3691 12.2833 19.1926 10.8794 17.3691 10.8794C15.4697 10.8794 14.3691 12.0845 14.3691 13.8336Z" fill="white"/>
</svg>
